<svg viewBox="0 0 64 64" xmlns="http://www.w3.org/2000/svg">
  <path fill="#7aba7a" d="m42.73999 18.59998h-20.42999l-6.40003 19.40002 16.47003 11.98999 16.58002-11.98999z"/>
  <path fill="#5d8a5d" d="m13.95001 37.56001s6.52997-19.79005 6.52997-19.79005c-.91948-1.267-5.1235-7.08827-5.95995-8.25001 0 0-9.99 13.36005-9.99 13.36005-.13.17999-.20001.38995-.20001.60999l.26996 16.59998s8.64801-2.34309 9.35003-2.52996z"/>
  <path fill="#4a6a4a" d="m5.20003 42.00001s9.56999 13.23998 9.56999 13.23998c.13.16998.29999.29999.5.37l15.40997 5.09003c.09111-1.37.55626-7.49243.66002-8.98005.00001.00001-16.80998-12.24999-16.80998-12.24999s-8.84918 2.3889-9.33 2.53004z"/>
  <path fill="#6a9a6a" d="m50.34003 39.45996-17 12.31c-.11033 1.58125-.55533 7.50644-.66004 8.99005 0 0 16.12-4.98004 16.12-4.98004.21002-.06.39001-.20001.52002-.37l9.77002-13.75c-.38045-.09106-8.75-2.20001-8.75-2.20001z"/>
  <path fill="#8fbc8f" d="m22.09998 16.59998h20.84003c.84413-1.28877 4.57061-6.89599 5.33003-8.08996-.00001 0-15.67005-5.45002-15.67005-5.45002-.20996-.08002-.44-.08002-.64996-.01001l-15.79999 5.31c.26188.35504 5.94995 8.23999 5.94995 8.23999z"/>
  <path fill="#6a9a6a" d="m44.58002 17.75 6.33997 19.79999c1.47743.36511 7.3731 1.85349 8.75 2.19001 0 0-.01001-16.22999-.01001-16.22999 0-.21002-.06995-.41003-.19-.58002l-9.57996-13.23999c-.76876 1.19512-4.47377 6.75716-5.31 8.06z"/>
</svg>
